<svg version="1.1" id="Layer_1" xmlns="http://www.w3.org/2000/svg" xmlns:xlink="http://www.w3.org/1999/xlink" x="0px" y="0px"
	 width="100%" viewBox="0 0 736 528" enable-background="new 0 0 736 528" xml:space="preserve">
<path fill="#000000" opacity="1.000000" stroke="none" 
	d="
M299.567810,352.605774 
	C314.723206,334.150085 330.898376,317.136444 347.521545,300.508850 
	C352.868439,295.160583 358.737671,293.256042 366.008270,294.006317 
	C369.129120,294.328369 373.403290,296.429596 375.187927,292.939758 
	C376.962524,289.469574 372.491455,287.738922 370.479614,285.566620 
	C362.887756,277.369171 359.422516,267.346466 358.047394,256.656525 
	C356.330048,243.306213 354.381775,229.912491 354.842163,216.399200 
	C355.485901,197.503479 357.607635,178.867416 366.894318,161.855194 
	C370.833954,154.638153 375.621124,148.067627 381.780182,142.555756 
	C390.720581,134.554810 400.699463,136.695755 405.442810,148.041260 
	C408.515289,155.390198 408.253906,163.341263 407.981567,171.174637 
	C407.825470,175.664856 407.374603,180.150436 407.360016,184.639084 
	C407.254456,217.129028 406.235931,249.597580 405.372925,282.072144 
	C405.009949,295.730255 399.923523,305.662323 386.782196,311.069855 
	C378.194672,314.603516 371.197449,320.742523 364.824890,327.331421 
	C345.947723,346.849396 327.372833,366.660065 307.958160,385.654205 
	C307.293213,386.304688 306.714294,387.043060 306.600128,388.224670 
	C315.644958,379.484619 324.677460,370.731750 333.737823,362.007812 
	C344.541290,351.605499 355.416229,341.276794 366.159180,330.812531 
	C369.789215,327.276672 373.843567,324.510742 378.343842,322.218536 
	C383.086334,319.802979 387.634674,317.008118 392.286499,314.412476 
	C406.357758,306.561035 412.202454,294.120789 412.673096,278.488708 
	C413.650177,246.032990 414.553894,213.572189 415.970276,181.134521 
	C416.339417,172.680069 416.057251,164.135040 417.585480,155.733902 
	C417.814148,154.476822 417.632690,153.072372 419.260529,152.161499 
	C421.122284,153.887070 421.031769,156.078751 420.978241,158.134445 
	C420.340759,182.602966 419.889191,207.074478 418.588867,231.525970 
	C417.802032,246.321732 416.793182,261.203796 417.561066,275.959808 
	C418.569061,295.329895 409.969025,308.743073 394.870544,319.239014 
	C385.874298,325.492859 375.799774,330.090881 367.884491,338.032166 
	C353.887329,352.075256 339.566620,365.797882 325.290710,379.560608 
	C309.815765,394.479279 294.240631,409.293976 278.701385,424.145874 
	C275.453339,427.250214 272.564819,430.292725 268.415222,424.625214 
	C266.805969,422.427277 263.761017,420.347382 260.251160,420.239197 
	C271.284760,431.740631 270.141785,441.265991 260.551392,448.561493 
	C256.521637,442.596832 250.047379,440.572113 243.596741,438.278473 
	C237.763031,436.204254 236.330872,429.889374 241.883606,426.131653 
	C254.396729,417.663483 259.897583,404.094116 268.412781,392.767181 
	C278.525970,379.314667 288.516998,365.780914 299.567810,352.605774 
z"/>
<path fill="#000000" opacity="1.000000" stroke="none" 
	d="
M588.912415,222.230621 
	C579.885437,224.253311 571.113159,225.121536 562.355530,226.040161 
	C553.487671,226.970337 544.752686,225.693115 536.074036,224.008667 
	C534.996826,223.799576 533.783142,223.510300 533.148865,222.320663 
	C533.081116,220.608902 534.448364,220.187881 535.624207,219.625641 
	C543.828918,215.702469 549.974060,209.512268 555.092285,202.136017 
	C564.223267,188.976730 570.385193,174.487732 574.216492,159.011490 
	C575.269409,154.758362 576.905090,154.014526 580.780090,155.950256 
	C591.535095,161.322815 601.775818,167.510330 611.580566,174.444580 
	C613.468811,175.780014 615.359375,177.112015 617.536621,178.103333 
	C611.225464,168.355713 602.636108,161.066940 592.754272,155.196426 
	C589.033630,152.986145 585.171082,151.015854 581.388916,148.907883 
	C579.009521,147.581711 577.485962,145.750290 578.227722,142.813995 
	C578.914978,140.093689 580.347839,138.659836 583.293152,140.116089 
	C601.595764,149.165298 618.309753,160.135620 629.107849,178.200073 
	C632.234436,183.430664 633.221436,189.395584 634.749084,195.178970 
	C643.663452,228.927444 651.931885,262.869263 661.868408,296.315002 
	C666.496094,311.891541 663.180481,326.189240 660.122437,340.890076 
	C654.621948,367.332489 646.646118,393.044220 636.426331,418.051392 
	C633.229431,425.873993 626.266418,428.678680 618.651733,425.241089 
	C615.707153,423.911743 615.831177,421.604950 616.431152,418.931427 
	C621.052002,398.342316 625.605164,377.737976 630.177612,357.138000 
	C632.517944,346.594391 634.878967,336.055298 637.182739,325.503693 
	C638.233643,320.690521 637.301819,319.605255 632.306580,319.319122 
	C628.944580,319.126495 625.312195,320.078552 622.593384,317.628387 
	C622.211304,315.489441 623.465149,314.849121 624.592163,314.156799 
	C625.868652,313.372711 627.214355,312.697418 628.466003,311.877228 
	C637.992798,305.634521 638.469177,303.772675 633.555847,293.571198 
	C624.869995,275.537048 613.295349,259.123535 604.311279,241.251083 
	C599.057312,230.799347 598.989014,230.354919 606.913513,221.649536 
	C609.668640,218.622940 612.314758,215.497223 614.734497,212.085159 
	C606.070557,215.205597 598.380859,220.389313 588.912415,222.230621 
z"/>
<path fill="#000000" opacity="1.000000" stroke="none" 
	d="
M373.604431,74.202965 
	C371.604340,65.888016 369.483917,57.995331 369.676697,49.760952 
	C369.916718,39.507496 375.244659,31.889677 382.671844,25.455778 
	C385.482605,23.020906 388.978455,23.435196 392.243835,23.742374 
	C413.859009,25.775761 434.979156,30.121004 455.253448,38.035507 
	C461.913269,40.635311 468.386841,43.712502 474.943604,46.575962 
	C478.121460,47.963806 478.885162,49.726959 476.331879,52.623985 
	C473.364105,55.991299 470.723328,59.645786 467.908813,63.150066 
	C467.295135,63.914150 466.674225,64.858940 465.839050,65.227631 
	C461.232056,67.261444 449.260040,58.608513 449.612793,53.477589 
	C449.886688,49.493622 448.487732,48.774757 444.913330,50.294327 
	C436.725861,53.775063 436.728149,53.636433 430.657196,47.232525 
	C428.613190,45.076431 426.332977,43.093937 422.641052,43.297401 
	C423.483337,46.924316 425.145264,50.240200 424.700623,53.972767 
	C424.371643,56.734684 426.940216,57.008751 428.671936,57.669167 
	C439.427368,61.770870 447.729309,69.070305 455.094421,77.634079 
	C457.201202,80.083710 458.526978,82.541992 455.033966,85.715103 
	C446.505096,76.492828 437.019653,68.871666 423.604523,65.216476 
	C432.736511,73.211311 440.723083,80.754097 448.072021,88.993088 
	C452.802582,94.296516 454.801971,100.215065 455.302368,107.052879 
	C455.861237,114.689117 458.757751,121.258804 465.221619,125.805122 
	C469.087494,128.524109 471.108612,132.322281 471.044739,136.847107 
	C470.683044,162.467285 481.591431,183.835861 495.956635,203.956909 
	C496.876831,205.245804 498.383057,206.376465 497.656738,208.339584 
	C495.934662,209.831696 494.494690,208.501022 493.085541,207.828461 
	C478.427704,200.832367 464.793152,192.262558 452.796234,181.242355 
	C446.964630,175.885513 442.352753,169.537903 438.993530,162.404617 
	C433.469299,150.673828 425.405975,141.959946 413.300507,136.445358 
	C397.561615,129.275574 388.701141,115.518089 382.137390,100.166145 
	C378.602234,91.897682 375.946167,83.309135 373.604431,74.202965 
z"/>
<path fill="#000000" opacity="1.000000" stroke="none" 
	d="
M497.987122,136.321930 
	C489.097198,134.305237 480.936554,131.776794 473.587646,126.777107 
	C464.341980,120.486938 460.020142,111.667908 459.976837,100.933449 
	C459.869293,74.269279 478.449982,45.660892 507.108002,39.397961 
	C530.718445,34.238121 552.532593,38.457478 570.490601,55.899830 
	C582.894165,67.947258 586.701904,83.202751 586.867737,99.990623 
	C587.022034,115.618607 575.813477,122.208359 564.532471,127.728775 
	C546.937012,136.339203 528.070557,140.114166 508.299866,137.573212 
	C505.008606,137.150192 501.636230,137.384506 497.987122,136.321930 
M576.100098,74.393791 
	C571.466675,63.294197 564.583435,54.170887 553.585205,48.570362 
	C559.815002,58.270054 563.924133,68.588432 565.693787,79.994698 
	C568.018738,94.980934 563.685425,105.647682 550.895935,113.653511 
	C536.581604,122.613838 520.794922,126.758080 504.033722,127.311020 
	C497.145416,127.538246 490.240143,127.469406 483.302673,126.833153 
	C483.793823,127.570663 484.328125,127.922264 484.897827,128.201614 
	C485.941772,128.713516 486.998505,129.201324 488.063934,129.667038 
	C503.351440,136.349548 519.229736,135.677582 535.149048,133.108810 
	C548.653687,130.929672 561.147888,126.061371 571.900696,117.356361 
	C575.687561,114.290695 579.314514,110.915367 579.654602,105.628479 
	C580.319885,95.285690 580.311218,84.981010 576.100098,74.393791 
M545.263428,65.644913 
	C545.478394,66.615685 545.701416,67.584747 545.907104,68.557480 
	C548.152100,79.174164 547.865173,89.345062 538.724365,96.861946 
	C525.918579,107.392662 511.518707,114.493782 494.761932,116.601357 
	C490.750061,117.105949 486.359985,116.415947 482.188477,118.366035 
	C483.782898,120.103081 485.378448,120.389534 487.016754,120.722939 
	C494.784821,122.303780 502.538910,121.934448 510.293243,120.685371 
	C526.343018,118.100082 541.062866,112.548691 553.474915,101.645042 
	C557.657593,97.970657 559.737854,93.447083 559.587830,88.033936 
	C559.330933,78.769173 557.485718,69.844063 552.190857,62.022675 
	C548.596191,56.712719 544.932007,51.355846 537.546021,48.164326 
	C540.925598,54.125660 543.507324,59.276936 545.263428,65.644913 
z"/>
<path fill="#000000" opacity="1.000000" stroke="none" 
	d="
M566.557922,155.390198 
	C562.488464,174.699478 555.461365,191.924210 541.241821,205.803192 
	C530.192993,216.587418 510.725372,217.852295 500.012817,203.734924 
	C488.137665,188.085480 478.681580,171.622223 476.280365,151.760971 
	C475.597107,146.109467 479.481201,142.495819 485.026001,143.197708 
	C492.071838,144.089630 498.539307,147.123993 505.724304,147.789749 
	C511.912292,148.363159 515.014893,155.356262 513.079041,161.574509 
	C514.425415,161.422592 514.865906,160.249847 515.549133,159.432236 
	C520.008118,154.096771 521.093567,154.042221 526.084351,159.025787 
	C529.176453,162.113403 530.215942,162.434769 533.514648,161.319016 
	C533.421814,161.008255 533.361023,160.448242 533.218689,160.426712 
	C527.027954,159.490067 526.285034,157.875977 530.209045,152.633362 
	C532.512085,149.556320 534.092468,144.727524 539.839722,147.229980 
	C540.571838,147.548752 542.101990,146.120483 543.224121,145.438538 
	C545.099487,144.298828 547.329346,142.718506 549.215393,143.888779 
	C551.282043,145.171051 552.048218,143.867981 553.480591,143.246094 
	C557.813782,141.364761 562.375549,140.802078 567.041809,141.819473 
	C569.321472,142.316483 569.176819,144.034409 568.792969,145.756256 
	C568.106018,148.837830 567.376831,151.910004 566.557922,155.390198 
M518.260864,204.232269 
	C521.440979,204.713867 523.821716,203.535599 526.259644,200.433899 
	C521.917969,200.421600 518.389282,199.949402 514.613098,200.975540 
	C515.401611,202.664886 516.428162,203.419815 518.260864,204.232269 
M520.424133,191.776016 
	C522.873352,191.776016 525.322571,191.776016 527.771790,191.776016 
	C522.236572,189.855240 516.777466,190.147018 511.338196,191.758499 
	C514.059509,191.758499 516.780762,191.758499 520.424133,191.776016 
z"/>
<path fill="#000000" opacity="1.000000" stroke="none" 
	d="
M136.628784,448.939270 
	C134.118393,449.486694 132.013290,450.127197 129.877335,450.256012 
	C125.386269,450.526886 122.988205,448.266266 122.730522,443.875000 
	C122.488037,439.742798 124.979469,436.629211 129.222321,436.788391 
	C134.026474,436.968658 137.961853,435.179871 141.852615,432.831177 
	C175.515594,412.510162 209.301178,392.412842 245.395920,376.568909 
	C248.463165,375.222504 250.750900,373.263306 251.499939,369.841461 
	C252.266220,366.340698 254.827072,364.798004 258.049438,364.804718 
	C261.541504,364.811981 263.488739,363.204254 265.169464,360.365448 
	C269.018433,353.864319 275.672180,352.415894 282.073517,350.727081 
	C284.013306,353.330261 282.314117,354.709747 281.402039,356.137909 
	C278.891693,360.068634 275.753662,363.683899 273.781372,367.857513 
	C266.634399,382.981354 254.834732,392.760315 240.311569,400.631927 
	C218.957016,412.206116 198.854492,426.152649 176.103043,435.062073 
	C163.252655,440.094238 150.059067,444.250000 136.628784,448.939270 
z"/>
<path fill="#000000" opacity="1.000000" stroke="none" 
	d="
M427.688232,270.998291 
	C428.024841,259.524231 428.266937,248.545822 428.731812,237.576843 
	C429.058502,229.870132 440.449158,222.807846 448.368164,225.613373 
	C459.648346,229.609726 470.538452,234.658218 482.084595,237.978439 
	C485.615936,238.993896 486.825104,241.975540 486.000061,245.567856 
	C485.357178,248.367157 484.102753,250.873245 482.088715,252.982788 
	C465.506775,270.351105 447.450134,286.096222 428.904846,301.302063 
	C428.291473,301.804962 427.481812,302.068390 425.251129,303.233307 
	C426.843353,292.006744 428.346466,281.788116 427.688232,270.998291 
z"/>
<path fill="#000000" opacity="1.000000" stroke="none" 
	d="
M694.395264,515.902344 
	C685.297974,510.825775 678.218933,504.156586 673.126343,495.501404 
	C671.762085,493.182892 670.468506,492.148529 667.597107,493.073547 
	C664.855530,493.956757 662.041382,493.013947 659.323486,492.050049 
	C651.647949,489.327850 643.898987,486.810516 636.243591,484.034424 
	C631.939331,482.473511 629.673889,484.125031 628.254028,488.114075 
	C626.634644,492.663910 627.281494,497.329895 627.209717,501.962677 
	C627.140198,506.447571 627.580505,510.992828 626.069580,515.325012 
	C625.085144,518.147339 623.019104,519.640686 619.895386,519.200378 
	C617.207886,518.821594 615.166809,517.161621 615.808411,514.540344 
	C618.702332,502.718231 614.242432,491.912231 611.609924,480.848969 
	C610.016968,474.154785 611.151123,467.654968 612.613220,461.122864 
	C613.895203,455.395508 614.039307,449.576569 613.324280,443.759369 
	C612.815247,439.617645 614.005859,437.102478 618.609070,436.482391 
	C621.407166,436.105469 624.205811,435.843536 627.002747,435.511047 
	C631.006592,435.035217 632.146851,437.382294 630.993958,440.256927 
	C627.039917,450.116150 630.953064,457.733429 637.341492,464.707977 
	C643.450439,471.377411 649.831726,477.498199 659.562866,478.782471 
	C673.158020,480.576782 683.977600,487.181366 691.257629,499.007507 
	C695.187744,505.391785 698.583252,512.205505 706.842285,514.132202 
	C707.471680,514.279053 707.901794,515.279724 708.749084,516.258423 
	C703.761230,520.133667 699.248596,517.863220 694.395264,515.902344 
z"/>
<path fill="#000000" opacity="1.000000" stroke="none" 
	d="
M523.936707,233.824341 
	C535.013794,235.251801 545.611206,234.619858 556.257446,233.922806 
	C566.663635,233.241470 576.721069,230.544952 586.980469,228.770966 
	C587.337585,231.463135 585.719055,231.859695 584.387573,232.400543 
	C538.219849,251.153900 494.587708,246.821075 454.118469,217.345932 
	C441.140991,207.894012 432.583191,194.784164 427.839355,179.370651 
	C426.255188,174.223404 423.737091,169.321732 423.145203,163.776276 
	C426.016541,163.358658 426.404938,165.485168 427.220642,166.965485 
	C430.513184,172.940842 433.892242,178.876129 436.953766,184.969681 
	C444.811127,200.608719 457.006134,211.729034 472.451569,219.524078 
	C488.518646,227.632843 505.468781,232.618866 523.936707,233.824341 
z"/>
<path fill="#000000" opacity="1.000000" stroke="none" 
	d="
M206.943756,455.782715 
	C214.546341,459.629150 219.487045,465.462311 223.125305,472.626984 
	C225.027405,476.372711 224.414505,479.187683 221.105972,481.734161 
	C215.955658,485.698395 210.439880,489.061920 204.788620,492.235931 
	C201.920105,493.847046 199.518204,493.415710 197.148056,491.131775 
	C189.302322,483.571472 185.818497,474.092987 185.115509,463.508331 
	C184.817642,459.023468 190.416473,454.274506 195.998047,453.590271 
	C199.762115,453.128845 203.238861,454.044739 206.943756,455.782715 
z"/>
<path fill="#000000" opacity="1.000000" stroke="none" 
	d="
M56.128349,495.693634 
	C50.234798,497.494904 46.551094,495.128387 43.632778,490.587402 
	C39.870323,484.732910 37.663841,478.397156 37.108208,471.485077 
	C36.802746,467.685089 37.927818,464.595001 41.725990,462.987518 
	C46.919575,460.789429 52.116173,458.598267 57.299824,456.376923 
	C59.313457,455.514038 61.180962,455.681091 62.931118,456.994568 
	C71.046104,463.084717 73.661850,478.618622 67.732338,486.808838 
	C64.888657,490.736694 61.289154,493.968201 56.128349,495.693634 
z"/>
<path fill="#000000" opacity="1.000000" stroke="none" 
	d="
M233.262390,414.345734 
	C204.982285,430.063934 176.391098,444.237671 146.095337,454.730499 
	C142.161896,456.092804 138.192947,457.231323 133.978958,457.401062 
	C125.967049,457.723694 121.016754,463.589294 115.174759,467.872589 
	C113.232346,469.296753 111.044472,473.187927 108.719086,470.391327 
	C106.053360,467.185455 110.646889,465.850464 112.442696,464.175720 
	C119.150093,457.920563 126.823875,454.511780 136.284409,453.105133 
	C147.725021,451.404144 158.296494,445.745697 169.042465,441.270691 
	C195.367813,430.307831 220.449036,416.918884 244.896515,402.292114 
	C247.222260,400.900635 249.524658,399.065186 254.183319,399.787170 
	C248.311798,407.334839 240.227554,409.799652 233.262390,414.345734 
z"/>
<path fill="#000000" opacity="1.000000" stroke="none" 
	d="
M484.492981,262.485718 
	C490.106537,257.239746 495.400635,252.165298 500.837463,247.248688 
	C503.251038,245.066025 505.957367,243.353287 509.541534,247.570297 
	C480.153778,275.739441 449.197815,301.497589 414.794769,323.047546 
	C414.561218,319.049408 417.172119,317.227203 419.629883,315.489746 
	C442.391479,299.399384 463.728516,281.572632 484.492981,262.485718 
z"/>
<path fill="#000000" opacity="1.000000" stroke="none" 
	d="
M73.826645,489.517212 
	C77.830887,475.988617 74.810593,464.709869 65.184212,454.927490 
	C62.370644,452.068329 64.030678,448.312805 68.033699,447.683167 
	C70.225075,447.338440 72.284653,447.803253 74.263420,448.890686 
	C84.941940,454.758911 92.002159,468.744049 90.362694,480.896667 
	C89.553535,486.894623 78.337097,493.023834 73.826645,489.517212 
z"/>
<path fill="#000000" opacity="1.000000" stroke="none" 
	d="
M215.528259,457.412170 
	C212.248810,454.781250 208.004852,454.706299 205.184601,452.024017 
	C208.438141,444.749725 219.280197,441.534271 225.437531,445.959595 
	C235.543243,453.222687 239.257339,463.501221 238.942062,475.516083 
	C238.895996,477.271057 238.253372,479.143707 237.417694,480.711914 
	C236.302307,482.804993 234.200333,483.572968 231.861465,483.217255 
	C229.658997,482.882233 229.029160,481.119049 228.716003,479.229187 
	C227.242844,470.338501 223.746841,462.660675 215.528259,457.412170 
z"/>
<path fill="#000000" opacity="1.000000" stroke="none" 
	d="
M570.031006,134.211456 
	C558.685303,137.397644 547.637817,140.392365 536.543823,143.203506 
	C531.805969,144.404053 527.218750,145.561569 524.223450,149.975525 
	C523.145386,151.564194 520.898743,152.729828 519.550598,150.893860 
	C514.340759,143.798996 506.292603,144.880142 499.169617,143.393265 
	C493.161407,142.139114 487.085388,141.282318 480.924622,140.925385 
	C476.254791,140.654831 475.692047,139.660095 476.170837,134.641815 
	C481.089355,134.187805 485.381683,136.809067 489.906769,137.919724 
	C515.893188,144.297913 540.986145,141.327545 565.571289,131.603485 
	C570.429138,129.682083 570.715027,129.833038 570.031006,134.211456 
z"/>
<path fill="#000000" opacity="1.000000" stroke="none" 
	d="
M245.446945,447.481812 
	C250.009460,450.625122 253.858902,454.023285 256.956696,458.188416 
	C259.807281,462.021240 258.892548,464.424561 253.419235,468.099915 
	C250.147781,470.296753 247.834991,469.149658 246.028900,466.077698 
	C241.131699,457.748230 235.714691,449.832916 228.277237,443.493103 
	C227.161697,442.542236 225.804993,441.420166 227.076080,439.745697 
	C228.102829,438.393127 229.433563,439.078186 230.694748,439.562073 
	C235.834656,441.534332 240.595398,444.208771 245.446945,447.481812 
z"/>
<path fill="#000000" opacity="1.000000" stroke="none" 
	d="
M118.387436,442.067627 
	C122.565613,444.946106 123.898788,449.635620 121.084999,452.818176 
	C116.838333,457.621338 111.999611,461.901123 107.591888,466.227234 
	C104.620865,465.232910 104.629784,462.939758 104.158714,461.140747 
	C103.149818,457.287689 102.384499,453.366547 101.633492,449.451385 
	C100.517006,443.631012 101.415710,442.406464 107.475304,442.004852 
	C110.953079,441.774353 114.459251,441.972076 118.387436,442.067627 
z"/>
<path fill="#000000" opacity="1.000000" stroke="none" 
	d="
M91.599388,464.368561 
	C89.913071,459.067505 88.231453,454.177429 85.642662,449.693726 
	C83.647675,446.238434 82.764099,443.294922 87.334885,441.134827 
	C91.827774,439.011566 95.756836,439.978851 98.004158,444.108917 
	C100.852051,449.342773 100.587425,455.071167 100.185974,460.700531 
	C99.868179,465.156830 98.955383,469.573364 98.243652,473.997375 
	C98.017342,475.404083 97.274872,476.647705 95.677689,476.541748 
	C94.321938,476.451813 93.962715,475.204102 93.711128,474.008575 
	C93.061317,470.920837 92.364937,467.842926 91.599388,464.368561 
z"/>
<path fill="#000000" opacity="1.000000" stroke="none" 
	d="
M193.446564,489.568298 
	C195.175552,491.069763 196.645233,492.333466 198.458313,493.892456 
	C195.845856,496.190277 193.718842,497.882416 190.580750,496.674805 
	C187.504166,495.490845 186.440918,493.063110 186.666229,489.921783 
	C186.811249,487.899719 185.897247,486.524170 184.253250,485.351807 
	C178.955856,481.574066 177.434418,476.337219 179.980316,468.877289 
	C184.199509,476.361938 187.004608,484.027924 193.446564,489.568298 
z"/>
<path fill="#000000" opacity="1.000000" stroke="none" 
	d="
M30.247570,483.363953 
	C27.766090,478.444763 28.301525,474.294708 31.799686,470.053894 
	C33.884449,471.899872 33.909485,473.973267 34.116417,475.808167 
	C34.744579,481.377991 36.904510,486.358215 39.560501,491.188385 
	C40.415543,492.743347 41.960213,494.114410 41.208134,496.165741 
	C40.884521,497.048401 40.006783,497.358643 39.152233,497.164734 
	C36.739948,496.617340 35.187229,494.626892 35.115993,492.599365 
	C34.979435,488.712463 33.098228,486.092407 30.247570,483.363953 
z"/>
</svg>